<svg width="366" height="281" viewBox="0 0 366 281" fill="none" xmlns="http://www.w3.org/2000/svg">
<path opacity="0.756428" d="M280.561 148.736C295.18 152.419 302.723 168.087 311.957 180.003C320.318 190.793 326.372 202.349 331.809 214.871C338.768 230.896 353.897 247.003 348.225 263.527C342.602 279.906 319.905 281.584 305.573 291.305C291.61 300.776 281.798 317.695 265.073 319.927C248.056 322.198 232.388 311.633 217.516 303.055C202.597 294.45 186.458 285.759 178.958 270.255C171.515 254.867 173.722 236.739 177.358 220.036C180.705 204.662 187.493 189.997 198.81 179.066C209.348 168.887 224.341 166.483 238.078 161.387C252.217 156.141 265.937 145.051 280.561 148.736Z" fill="#F4F3EE"/>
<path opacity="0.756428" d="M127.561 154.736C142.18 158.419 149.723 174.087 158.957 186.003C167.318 196.793 173.372 208.349 178.809 220.871C185.768 236.896 200.897 253.003 195.225 269.527C189.602 285.906 166.905 287.584 152.573 297.305C138.61 306.776 128.798 323.695 112.073 325.927C95.0559 328.198 79.3876 317.633 64.5159 309.055C49.5973 300.45 33.4579 291.759 25.9584 276.255C18.5145 260.867 20.7216 242.739 24.3579 226.036C27.7048 210.662 34.4931 195.997 45.8101 185.066C56.3484 174.887 71.3413 172.483 85.0778 167.387C99.2172 162.141 112.937 151.051 127.561 154.736Z" fill="#F4F3EE"/>
<path d="M229.851 11.4686C242.611 16.7801 248.63 31.0396 258.292 40.9234C268.401 51.2653 284.365 57.5014 288.417 71.384C292.468 85.2599 283.916 99.5134 279.401 113.245C275.352 125.562 269.822 136.922 263.206 148.072C256.155 159.953 251.184 174.446 239.104 181.15C227.023 187.856 212.035 182.811 198.279 184.108C183.964 185.457 169.393 194.131 155.964 188.99C142.561 183.858 136.783 168.331 127.812 157.127C119.239 146.418 108.094 137.267 104.055 124.157C99.9963 110.979 102.823 96.924 105.079 83.3204C107.343 69.6651 109.535 55.6309 117.318 44.1848C125.157 32.6568 136.669 23.8725 149.387 18.1627C161.703 12.6331 175.457 13.1623 188.911 12.043C202.685 10.8971 217.091 6.15711 229.851 11.4686Z" fill="#F4F3EE"/>
<path d="M110.362 46.7398C127.359 57.7273 137.04 76.452 141.402 96.2155C145.62 115.321 143.884 135.477 133.628 152.139C123.503 168.588 106.073 177.91 87.6143 183.598C67.889 189.677 45.4932 195.72 28.059 184.671C10.841 173.759 8.54095 150.782 4.35435 130.832C0.41408 112.056 -3.40306 92.6491 5.1433 75.4727C14.2922 57.0853 30.9269 43.0182 50.7392 37.6079C70.9024 32.1018 92.8086 35.3927 110.362 46.7398Z" fill="#824D5C"/>
<path opacity="0.909119" d="M176.825 134.155C189.234 135.886 204.989 130.681 213.497 139.879C222.339 149.437 214.349 165.623 217.597 178.231C220.277 188.631 231.47 196.443 230.832 207.163C230.193 217.896 219.178 224.803 214.255 234.362C209.235 244.111 209.058 256.317 201.453 264.217C193.58 272.397 182.425 276.982 171.258 279.031C160.084 281.081 149.107 276.17 137.75 275.905C122.836 275.558 104.581 287.294 93.5755 277.222C82.4411 267.033 94.4934 247.162 90.4491 232.622C87.071 220.476 73.3152 212.633 72.1204 200.083C70.9145 187.415 79.0467 176.033 83.9439 164.288C89.2501 151.562 90.2643 134.57 102.266 127.783C114.611 120.803 130.076 129.005 144.206 130.213C155.257 131.157 165.84 132.623 176.825 134.155Z" fill="#824D5C"/>
<path d="M415.634 160.784C425.506 169.763 430.415 182.046 438.69 192.516C449.098 205.684 471.764 213.479 470.51 230.217C469.253 246.987 444.228 250.005 433.418 262.887C423.542 274.655 423.535 293.705 410.46 301.773C396.848 310.172 378.754 311.16 363.634 305.945C349.061 300.918 339.29 287.466 331.107 274.403C324.153 263.301 325.829 249.38 320.661 237.343C313.771 221.295 290.147 208.875 295.892 192.382C301.588 176.027 329.082 183.424 343.02 173.145C356.743 163.025 357.859 137.149 374.667 134.287C391.031 131.502 403.354 149.615 415.634 160.784Z" fill="#F4F3EE"/>
<path opacity="0.868377" d="M380.687 8.56423C428.043 30.782 447.093 87.654 424.875 135.009C402.719 182.232 346.834 203.528 299.611 181.373C252.673 159.351 234.222 102.83 256.244 55.8927C278.328 8.82173 333.616 -13.5201 380.687 8.56423Z" fill="#824D5C"/>
</svg>
