<svg width="397" height="249" viewBox="0 0 397 249" fill="none" xmlns="http://www.w3.org/2000/svg">
<path d="M39.447 -36.3096C76.6422 -18.4156 93.7901 23.4705 88.458 64.4003C83.1197 105.377 55.8744 141.72 15.2607 149.346C-25.5052 157.001 -64.7103 133.402 -84.2928 96.8378C-103.45 61.0665 -99.0508 17.2058 -71.4269 -12.5182C-42.9783 -43.1297 1.78846 -54.4267 39.447 -36.3096Z" fill="#824D5C"/>
<path opacity="0.53" d="M251.877 40.6419C264.567 41.9053 277.246 44.99 288.039 51.7809C298.639 58.45 304.674 69.9536 313.137 79.1842C322.358 89.241 336.767 95.8908 340.514 109.011C344.243 122.07 337.201 135.693 332.957 148.594C329.029 160.534 323.123 171.382 316.484 182.055C309.594 193.133 303.255 204.761 293.005 212.831C282.272 221.279 269.641 227.786 256.101 229.588C242.527 231.394 228.647 228.315 215.994 223.08C203.804 218.037 193.13 209.848 184.426 199.935C176.199 190.565 171.703 178.844 167.007 167.292C162.469 156.127 159.092 144.807 157.183 132.907C155.09 119.849 150.143 105.932 155.209 93.7163C160.273 81.5052 174.203 75.9342 184.332 67.4397C194.031 59.3058 202.237 49.0781 214.003 44.41C225.926 39.6797 239.113 39.3712 251.877 40.6419Z" fill="#824D5C"/>
<path d="M190.382 3.06894C213.686 14.166 233.878 31.9856 242.452 56.3306C251.09 80.8566 247.451 107.973 235.453 131.043C223.746 153.553 203.436 170.379 179.212 177.928C155.65 185.27 130.504 181.551 108.365 170.646C86.2864 159.771 67.7453 142.235 59.5974 119.012C51.3948 95.6329 54.7118 70.1628 65.2414 47.7355C75.9608 24.9039 93.3058 5.09798 117.061 -3.38085C141.082 -11.9548 167.354 -7.89702 190.382 3.06894Z" fill="#F4F3EE"/>
<path d="M339.382 -45.9311C362.686 -34.834 382.878 -17.0144 391.452 7.33056C400.09 31.8566 396.451 58.9732 384.453 82.0425C372.746 104.553 352.436 121.379 328.212 128.928C304.65 136.27 279.504 132.551 257.365 121.646C235.286 110.771 216.745 93.2353 208.597 70.0119C200.395 46.6329 203.712 21.1628 214.241 -1.26453C224.961 -24.0961 242.306 -43.902 266.061 -52.3808C290.082 -60.9548 316.354 -56.897 339.382 -45.9311Z" fill="#F4F3EE"/>
<path opacity="0.576253" d="M180.256 -50.9888C213.626 -39.2143 248.462 -17.154 246.843 18.1953C245.203 53.9799 208.835 73.8254 174.131 82.7062C140.991 91.1866 103.166 88.2729 84.1732 59.8226C64.5862 30.4823 72.2787 -8.5912 95.3894 -35.2445C116.228 -59.2773 150.26 -61.573 180.256 -50.9888Z" fill="#F4F3EE"/>
<path opacity="0.5863" d="M45.4044 91.7214C54.1194 92.0964 63.3003 86.7807 71.3085 90.2391C79.314 93.6964 80.6808 105.339 87.9806 110.109C97.3354 116.221 112.207 112.81 119.196 121.53C125.554 129.464 119.456 141.7 121.31 151.697C123.419 163.067 131.676 173.186 130.918 184.726C130.151 196.405 127.703 211.82 117.045 216.657C103.685 222.719 88.3958 208.931 73.8237 210.634C65.4779 211.609 59.6386 219.268 52.8085 224.162C42.1276 231.816 34.6878 245.471 21.7794 247.927C10.1045 250.149 -4.14222 245.642 -11.6477 236.428C-19.8482 226.36 -17.5193 211.369 -18.5416 198.425C-19.2886 188.966 -17.1621 179.735 -16.874 170.251C-16.6453 162.721 -16.6015 155.367 -17.0054 147.845C-17.4806 138.996 -23.8346 129.325 -19.4862 121.604C-15.1182 113.848 -2.44426 115.794 4.3103 109.996C11.1478 104.128 11.4139 91.6776 19.6471 88.0162C27.6409 84.4613 36.6638 91.3454 45.4044 91.7214Z" fill="#F4F3EE"/>
</svg>
