<svg width="48" height="40" viewBox="0 0 48 40" fill="none" xmlns="http://www.w3.org/2000/svg">
<path d="M5.29421 5.22706C5.20421 2.50823 7.23032 0 9.96967 0H38.0337C40.7731 0 42.7992 2.50823 42.708 5.22706C42.6214 7.84 42.7339 11.2235 43.5484 13.9835C44.3652 16.7518 45.7433 18.5012 48 18.7259V21.2753C45.7433 21.5 44.3663 23.2494 43.5484 26.0176C42.7339 28.7765 42.6214 32.1612 42.708 34.7741C42.798 37.4918 40.7719 40 38.0337 40H9.96967C7.23144 40 5.20421 37.4918 5.29533 34.7729C5.38196 32.16 5.26946 28.7765 4.45496 26.0165C3.63822 23.2482 2.25673 21.4988 0 21.2741V18.7247C2.25673 18.5 3.6371 16.7506 4.45496 13.9824C5.26833 11.2235 5.38196 7.84 5.29421 5.22706Z" fill="#824D5C"/>
<path d="M27.4566 19.3696V19.3366C29.5413 18.9602 31.168 16.9166 31.168 14.666C31.168 13.0755 30.583 11.7272 29.476 10.7696C28.3724 9.81428 26.8244 9.30957 24.9974 9.30957H16.6309V30.6825H25.0402C27.2249 30.6825 29.0395 30.1249 30.286 29.0684C31.5336 28.0107 32.194 26.4719 32.194 24.6178C32.1929 21.8166 30.2916 19.7131 27.4566 19.3696ZM23.5383 18.3625H19.9597V12.106H24.2167C26.5522 12.106 27.838 13.1778 27.838 15.1237C27.8391 17.2119 26.3114 18.3625 23.5383 18.3625ZM19.9597 20.9813H24.1885C27.244 20.9813 28.792 22.1355 28.792 24.4119C28.792 26.6849 27.2654 27.886 24.3764 27.886H19.9597V20.9813Z" fill="#F4F3EE"/>
</svg>
