<svg width="48" height="48" viewBox="0 0 48 48" fill="none" xmlns="http://www.w3.org/2000/svg">
<path d="M0.0112343 2.76312L3.76064 40.5655C3.91622 42.1363 5.14509 43.4607 6.84923 43.8937L22.0396 47.7552C23.3212 48.0816 24.6786 48.0816 25.9602 47.7552L41.1506 43.8937C42.8547 43.4607 44.0836 42.1376 44.2391 40.5655L47.9886 2.76312C48.137 1.27744 46.8225 0 45.1469 0H2.85434C1.17873 0 -0.135773 1.27744 0.0112343 2.76312Z" fill="url(#paint0_linear_70_161)"/>
<path d="M24.001 3.80957V44.3167L38.0966 40.7333C39.2341 40.4438 40.0534 39.56 40.1561 38.5124L43.4188 5.18986C43.4916 4.44702 42.8351 3.80957 41.9973 3.80957H24.001Z" fill="#824D5C"/>
<path d="M36.989 10.1582H24.001V15.2375H30.9945L30.5664 20.3167H24.001V25.396H30.2809L29.8527 31.1102L24.001 32.8879V38.2211L35.2763 34.9196L36.2754 20.3167L36.989 10.1582Z" fill="#C1A3A1"/>
<path d="M24.0009 10.1582V15.2375H11.2983L10.8701 10.1582H24.0009ZM17.4355 20.3167L17.721 25.396H24.0009V20.3167H17.4355ZM18.0064 27.9356H12.2974L12.7256 34.9196L24.0009 38.2211V32.8879L18.1491 31.1102L18.0064 27.9356Z" fill="#824D5C"/>
<path opacity="0.05" d="M36.989 10.1585L36.2753 20.317L35.2763 34.9199L24.0009 38.2214L12.7256 34.9199L12.2974 27.9359H18.0064L18.1491 31.1105L24.0009 32.8882L29.8527 31.1105L30.2809 25.3963H24.0009H17.721L17.4355 20.317H24.0009H30.5663L30.9945 15.2378H24.0009H11.2983L10.8701 10.1585H24.0009H36.989ZM38.5076 8.88867H36.989H24.0009H10.8701H9.33154L9.44715 10.2537L9.87533 15.333L9.97381 16.5076H11.2983H24.0009H29.4559L29.2418 19.0472H24.0009H17.4355H15.9355L16.0097 20.3805L16.2951 25.4598L16.3636 26.6661H12.2974H10.7902L10.873 28.0045L11.3012 34.9885L11.354 35.8545L12.2803 36.1262L23.5556 39.4277L24.0009 39.5585L24.4476 39.4277L35.723 36.1262L36.6421 35.857L36.7007 34.9974L37.6997 20.3945L38.4134 10.2385L38.5076 8.88867ZM19.378 26.6661H24.0009H28.7551L28.4911 30.1822L24.0009 31.546L19.5364 30.1898L19.4323 27.8851L19.378 26.6661Z" fill="black"/>
<path opacity="0.07" d="M36.9887 10.1583L36.2751 20.3169L35.276 34.9198L24.0007 38.2213L12.7253 34.9198L12.2971 27.9358H18.0062L18.1489 31.1103L24.0007 32.8881L29.8524 31.1103L30.2806 25.3961H24.0007H17.7207L17.4353 20.3169H24.0007H30.5661L30.9942 15.2376H24.0007H11.2981L10.8699 10.1583H24.0007H36.9887ZM37.748 9.52344H36.9887H24.0007H10.8699H10.1006L10.1577 10.2053L10.5859 15.2846L10.6358 15.8725H11.2981H24.0007H30.2249L29.9038 19.682H24.0007H17.4353H16.6845L16.7216 20.3486L17.0071 25.4279L17.0413 26.031H17.7207H24.0007H29.5184L29.1731 30.6456L24.0007 32.2176L18.8425 30.6506L18.7198 27.9104L18.6913 27.3009H18.0062H12.2971H11.5435L11.5849 27.9701L12.0131 34.954L12.0402 35.3871L12.5027 35.5229L23.778 38.8244L24.0007 38.8892L24.2233 38.8244L35.4987 35.5229L35.9582 35.3883L35.9882 34.9579L36.9873 20.355L37.7009 10.1977L37.748 9.52344Z" fill="#C1A3A1"/>
<defs>
<linearGradient id="paint0_linear_70_161" x1="13.0535" y1="-9.83853" x2="31.5383" y2="47.2438" gradientUnits="userSpaceOnUse">
<stop stop-color="#DAD7CD"/>
<stop offset="1" stop-color="#F4F3EE"/>
</linearGradient>
</defs>
</svg>
