<svg width="48" height="48" viewBox="0 0 48 48" fill="none" xmlns="http://www.w3.org/2000/svg">
<path d="M1.75 8.98125C1.75 4.02188 7.1125 0 13.725 0H34.275C40.8875 0 46.25 4.02188 46.25 8.98125C46.25 12.1219 44.1 14.8875 40.8375 16.4906C44.1 18.0937 46.25 20.8594 46.25 24C46.25 28.9594 40.8875 32.9812 34.275 32.9812H34.0125C30.9125 32.9812 28.0875 32.1 25.9625 30.6469V38.925C25.9625 43.95 20.4625 48 13.7875 48C7.1875 48 1.75 43.9875 1.75 39.0188C1.75 35.8781 3.9 33.1125 7.15 31.5094C3.9 29.9063 1.75 27.1406 1.75 24C1.75 20.8594 3.9 18.0937 7.15 16.4906C3.9 14.8875 1.75 12.1219 1.75 8.98125ZM22.0375 17.9625H13.725C9.275 17.9625 5.675 20.6625 5.675 24C5.675 27.3188 9.25 30.0187 13.675 30.0375C13.6875 30.0375 13.7125 30.0375 13.725 30.0375H22.0375V17.9625ZM25.9625 24C25.9625 27.3375 29.5625 30.0375 34.0125 30.0375H34.275C38.7125 30.0375 42.325 27.3375 42.325 24C42.325 20.6625 38.7125 17.9625 34.275 17.9625H34.0125C29.5625 17.9625 25.9625 20.6625 25.9625 24ZM13.725 32.9812C13.7125 32.9812 13.6875 32.9812 13.675 32.9812C9.25 33 5.675 35.7 5.675 39.0188C5.675 42.3469 9.325 45.0563 13.7875 45.0563C18.325 45.0563 22.0375 42.3 22.0375 38.925V32.9812H13.725ZM13.725 2.94375C9.275 2.94375 5.675 5.64375 5.675 8.98125C5.675 12.3188 9.275 15.0187 13.725 15.0187H22.0375V2.94375H13.725ZM25.9625 15.0187H34.275C38.7125 15.0187 42.325 12.3188 42.325 8.98125C42.325 5.64375 38.7125 2.94375 34.275 2.94375H25.9625V15.0187Z" fill="#824D5C"/>
</svg>
