<svg width="48" height="48" viewBox="0 0 48 48" fill="none" xmlns="http://www.w3.org/2000/svg">
<path d="M48 0H0L4.23529 42.9474L24 48L43.7647 42.9474L48 0Z" fill="#824D5C"/>
<path d="M24 3.78906V44.0838L39.8118 40.0417L43.3412 3.78906H24Z" fill="#F4F3EE"/>
<path d="M24 25.2634V20.2107H36.1412L35.1529 34.737L24 38.0213V32.716L29.7882 30.9476L30.2118 25.2634H24ZM36.5647 15.1581L36.9882 10.1055H24V15.1581H36.5647Z" fill="#C1A3A1"/>
<path d="M23.9999 32.716V38.0213L12.847 34.737L12.2822 27.7897H17.9293L18.2117 30.9476L23.9999 32.716ZM17.0822 15.1581H23.9999V10.1055H11.1528L12.1411 25.2634H23.9999V20.2107H17.5058L17.0822 15.1581Z" fill="#F4F3EE"/>
</svg>
