<svg width="24" height="24" viewBox="0 0 24 24" fill="none" xmlns="http://www.w3.org/2000/svg">
<g clip-path="url(#clip0_70_210)">
<path d="M11.9999 23.4831C5.65783 23.4831 0.516602 18.3419 0.516602 11.9999C0.516602 5.65783 5.65783 0.516602 11.9999 0.516602C18.3419 0.516602 23.4831 5.65783 23.4831 11.9999C23.4831 18.3419 18.3419 23.4831 11.9999 23.4831Z" stroke="#824D5C" stroke-width="0.8" stroke-miterlimit="10"/>
<path d="M8.79981 4.7998C6.59421 4.7998 4.7998 6.59421 4.7998 8.79981V15.1998C4.7998 17.4054 6.59421 19.1998 8.79981 19.1998H15.1998C17.4054 19.1998 19.1998 17.4054 19.1998 15.1998V8.79981C19.1998 6.59421 17.4054 4.7998 15.1998 4.7998H8.79981ZM8.79981 6.39981H15.1998C16.523 6.39981 17.5998 7.47661 17.5998 8.79981V15.1998C17.5998 16.523 16.523 17.5998 15.1998 17.5998H8.79981C7.47661 17.5998 6.39981 16.523 6.39981 15.1998V8.79981C6.39981 7.47661 7.47661 6.39981 8.79981 6.39981ZM15.9998 7.19981C15.558 7.19981 15.1998 7.55798 15.1998 7.99981C15.1998 8.44163 15.558 8.79981 15.9998 8.79981C16.4416 8.79981 16.7998 8.44163 16.7998 7.99981C16.7998 7.55798 16.4416 7.19981 15.9998 7.19981ZM11.9998 7.99981C9.79421 7.99981 7.99981 9.79421 7.99981 11.9998C7.99981 14.2054 9.79421 15.9998 11.9998 15.9998C14.2054 15.9998 15.9998 14.2054 15.9998 11.9998C15.9998 9.79421 14.2054 7.99981 11.9998 7.99981ZM11.9998 9.59981C13.323 9.59981 14.3998 10.6766 14.3998 11.9998C14.3998 13.323 13.323 14.3998 11.9998 14.3998C10.6766 14.3998 9.59981 13.323 9.59981 11.9998C9.59981 10.6766 10.6766 9.59981 11.9998 9.59981Z" fill="#824D5C"/>
</g>
<defs>
<clipPath id="clip0_70_210">
<rect width="24" height="24" fill="white"/>
</clipPath>
</defs>
</svg>
