<svg width="48" height="37" viewBox="0 0 48 37" fill="none" xmlns="http://www.w3.org/2000/svg">
<path d="M24 0C17.6 0 13.6 4.11083 12 12.3325C14.4 8.22165 17.2 6.68089 20.4 7.70764C22.226 8.29361 23.531 9.99628 24.976 11.8801C27.328 14.9475 30.051 18.4994 36 18.4994C42.4 18.4994 46.4 14.3885 48 6.1656C45.6 10.2764 42.8 11.8185 39.6 10.7917C37.775 10.2057 36.47 8.50307 35.025 6.61921C32.672 3.55055 29.948 0 24 0ZM12 18.4994C5.6 18.4994 1.6 22.6102 0 30.8331C2.4 26.7223 5.2 25.1803 8.4 26.2083C10.225 26.7955 11.53 28.4969 12.975 30.3795C15.328 33.4482 18.052 37 24 37C30.4 37 34.4 32.8892 36 24.6662C33.6 28.7771 30.8 30.3191 27.6 29.2911C25.774 28.7051 24.469 27.0024 23.024 25.1199C20.672 22.0512 17.949 18.4994 12 18.4994Z" fill="#824D5C"/>
</svg>
